<svg width="512" height="512" viewBox="0 0 512 512" fill="none" xmlns="http://www.w3.org/2000/svg" xmlns:xlink="http://www.w3.org/1999/xlink" class=""><rect id="r4" width="512" height="512" x="0" y="0" rx="128" fill="url(#r5)" stroke="#FFFFFF" stroke-width="0" stroke-opacity="100%" paint-order="stroke"></rect><clipPath id="clip"><use xlink:href="#r4"></use></clipPath><defs><linearGradient id="r5" gradientUnits="userSpaceOnUse" gradientTransform="rotate(45)" style="transform-origin: center center;"><stop stop-color="#F5AF19"></stop><stop offset="1" stop-color="#F12711"></stop></linearGradient><radialGradient id="r6" cx="0" cy="0" r="1" gradientUnits="userSpaceOnUse" gradientTransform="translate(256) rotate(90) scale(512)"><stop stop-color="white"></stop><stop offset="1" stop-color="white" stop-opacity="0"></stop></radialGradient></defs><svg viewBox="0 0 16 16" fill="none" xmlns="http://www.w3.org/2000/svg" width="352" height="352" x="80" y="80" alignment-baseline="middle" style="color: rgb(255, 255, 255);"><path fill-rule="evenodd" clip-rule="evenodd" d="m15 8-.73.73-2.77-2.77V4.5L15 8ZM8 1l-.73.73 2.77 2.769h1.46L8 1ZM6.433 2.57l-.73.73 1.201 1.203h1.46L6.434 2.57ZM11.5 7.636v1.461l1.202 1.202.73-.73L11.5 7.635Zm-.418 2.716.418-.418H6.068V4.5l-.418.418-.784-.784-.733.732.784.784-.418.418v.84L3.297 5.706l-.73.73L4.498 8.37v1.667L1.731 7.27 1 8l7 7 .73-.73-2.768-2.77h1.673l1.933 1.933.73-.73L9.098 11.5h.84l.418-.418.784.784.73-.73-.787-.784Z" fill="currentColor"></path></svg></svg>